<svg width="1280" height="800" viewBox="0 0 1280 800" fill="none" xmlns="http://www.w3.org/2000/svg">
<rect width="1280" height="800" rx="40" fill="url(#bg)"/>
<circle cx="1090" cy="154" r="106" fill="#FFFFFF" fill-opacity="0.22"/>
<circle cx="180" cy="148" r="124" fill="#FFF3DA" fill-opacity="0.55"/>
<rect x="110" y="178" width="1060" height="486" rx="32" fill="#FFFFFF" fill-opacity="0.92"/>
<rect x="174" y="252" width="280" height="344" rx="24" fill="#FFF4E2"/>
<rect x="490" y="252" width="300" height="344" rx="24" fill="#FFF9F0"/>
<rect x="826" y="252" width="280" height="344" rx="24" fill="#FFF4E2"/>
<rect x="228" y="312" width="172" height="26" rx="13" fill="#C96C1F"/>
<rect x="210" y="370" width="208" height="172" rx="28" fill="#FFFFFF"/>
<circle cx="322" cy="456" r="52" fill="#F6D6AA"/>
<rect x="560" y="292" width="160" height="212" rx="28" fill="#C96C1F"/>
<rect x="530" y="520" width="220" height="28" rx="14" fill="#F0B15F"/>
<rect x="876" y="310" width="180" height="30" rx="15" fill="#C96C1F"/>
<rect x="896" y="362" width="140" height="142" rx="20" fill="#FFFFFF"/>
<rect x="174" y="622" width="856" height="18" rx="9" fill="#E5BA80"/>
<defs>
<linearGradient id="bg" x1="96" y1="38.5" x2="1160.5" y2="800" gradientUnits="userSpaceOnUse">
<stop stop-color="#FFF7EA"/>
<stop offset="1" stop-color="#FFE7C2"/>
</linearGradient>
</defs>
</svg>
