<svg width="1280" height="800" viewBox="0 0 1280 800" fill="none" xmlns="http://www.w3.org/2000/svg">
<rect width="1280" height="800" rx="40" fill="url(#bg)"/>
<circle cx="176" cy="164" r="120" fill="#D7E6FF" fill-opacity="0.55"/>
<circle cx="1110" cy="122" r="92" fill="#FFFFFF" fill-opacity="0.24"/>
<rect x="112" y="186" width="1056" height="476" rx="28" fill="#FFFFFF" fill-opacity="0.92"/>
<rect x="172" y="254" width="250" height="264" rx="22" fill="#EAF2FF"/>
<rect x="470" y="254" width="250" height="264" rx="22" fill="#F4F8FF"/>
<rect x="768" y="254" width="250" height="264" rx="22" fill="#EAF2FF"/>
<rect x="220" y="314" width="154" height="18" rx="9" fill="#174EA6"/>
<rect x="220" y="354" width="122" height="18" rx="9" fill="#7EA6E8"/>
<rect x="220" y="400" width="154" height="72" rx="18" fill="#FFFFFF"/>
<rect x="548" y="300" width="96" height="150" rx="18" fill="#174EA6"/>
<rect x="512" y="450" width="168" height="24" rx="12" fill="#7EA6E8"/>
<rect x="816" y="304" width="160" height="100" rx="18" fill="#174EA6"/>
<rect x="848" y="334" width="96" height="18" rx="9" fill="#FFFFFF"/>
<rect x="832" y="442" width="128" height="24" rx="12" fill="#7EA6E8"/>
<rect x="172" y="562" width="846" height="38" rx="19" fill="#EAF2FF"/>
<rect x="172" y="626" width="642" height="18" rx="9" fill="#B5CDF7"/>
<defs>
<linearGradient id="bg" x1="74.5" y1="52" x2="1138" y2="800" gradientUnits="userSpaceOnUse">
<stop stop-color="#EEF4FF"/>
<stop offset="1" stop-color="#D5E4FF"/>
</linearGradient>
</defs>
</svg>
