<svg width="1280" height="800" viewBox="0 0 1280 800" fill="none" xmlns="http://www.w3.org/2000/svg">
<rect width="1280" height="800" rx="40" fill="url(#bg)"/>
<circle cx="1094" cy="152" r="102" fill="#FFFFFF" fill-opacity="0.22"/>
<circle cx="172" cy="166" r="122" fill="#E7E2FF" fill-opacity="0.55"/>
<rect x="110" y="182" width="1060" height="480" rx="32" fill="#FFFFFF" fill-opacity="0.92"/>
<rect x="184" y="252" width="392" height="342" rx="24" fill="#F3F0FF"/>
<rect x="612" y="252" width="486" height="342" rx="24" fill="#FAF8FF"/>
<rect x="246" y="312" width="268" height="160" rx="22" fill="#5A3FB4"/>
<rect x="274" y="346" width="212" height="18" rx="9" fill="#FFFFFF"/>
<rect x="274" y="390" width="150" height="18" rx="9" fill="#DAD0FF"/>
<rect x="246" y="510" width="268" height="24" rx="12" fill="#A595F0"/>
<rect x="692" y="312" width="124" height="124" rx="22" fill="#5A3FB4"/>
<rect x="842" y="312" width="124" height="124" rx="22" fill="#826DE0"/>
<rect x="992" y="312" width="124" height="124" rx="22" fill="#B4A8F7"/>
<rect x="692" y="486" width="424" height="24" rx="12" fill="#A595F0"/>
<rect x="692" y="536" width="314" height="18" rx="9" fill="#D4CCFB"/>
<rect x="184" y="622" width="932" height="18" rx="9" fill="#C7BCFA"/>
<defs>
<linearGradient id="bg" x1="104" y1="49" x2="1163" y2="800" gradientUnits="userSpaceOnUse">
<stop stop-color="#F3F0FF"/>
<stop offset="1" stop-color="#E0D7FF"/>
</linearGradient>
</defs>
</svg>
